# xmcd
#
# Track frame offsets:
#	150
#	13538
#	17545
#	40926
#	74265
#	96046
#	114183
#	131004
#	139594
#	155753
#	181614
#	203344
#	222849
#	241229
#	270973
#	282309
#	290282
#
# Disc length: 4023 seconds
#
# Revision: 2
# Processed by: cddbd v1.5.2PL0 Copyright (c) Steve Scherf et al.
# Submitted via: EZCDAudioConverter 1.3.4.1
#
DISCID=de0fb511
DTITLE=Hunter S. Thompson - The Gonzo Tapes 5/5
DYEAR=2008
DGENRE=
TTITLE0=Hello, Hunter
TTITLE1=Why Don't You Talk To Gloria
TTITLE2=Hello. Long-Distance Calling For Gloria Emerson
TTITLE3=When Were You Last There?
TTITLE4=Want To Go, Hunter?
TTITLE5=We Should Be In Saigon, In Loren Jenkins' Room, #48 Of The Continental
TTITLE5=Palace Hotel
TTITLE6=I Wasn't In A Position To Interpret That-One Thousand Rounds, Two Thou
TTITLE6=sand Rounds
TTITLE7=Nine O'Clock, Thursday Morning, Saigon, Continental Hotel, Room #37
TTITLE8=Now It's Friday Morning
TTITLE9=What Did You Hear?
TTITLE10=To Get To Where We Were Yesterday...
TTITLE11=And That Was When This Goddamn Machine Broke
TTITLE12=And Based On A Prediction That Ford's Speech Is Going To Be Rudely Re
TTITLE12=ceived In Saigon...
TTITLE13=Meanwhile I Have To Go Over To The Newsweek Office
TTITLE14=Five Minutes Of Six, In The Newsweek Office
TTITLE15=Let's See, The News Tonight
TTITLE16=The Last Commercial Airliner Still Flying Out Of Here-Air Vietnam Fli
TTITLE16=ght 783, Hong Kong
EXTD=
EXTT0=
EXTT1=
EXTT2=
EXTT3=
EXTT4=
EXTT5=
EXTT6=
EXTT7=
EXTT8=
EXTT9=
EXTT10=
EXTT11=
EXTT12=
EXTT13=
EXTT14=
EXTT15=
EXTT16=
PLAYORDER=
